<mxfile host="app.diagrams.net" modified="2024-10-22T19:39:31.198Z" agent="Mozilla/5.0 (Windows NT 10.0; Win64; x64) AppleWebKit/537.36 (KHTML, like Gecko) Chrome/130.0.0.0 Safari/537.36" etag="gpCyeYQ5ji0gV1fFXzFr" version="24.6.5" type="device">
  <diagram name="Page-1" id="bZgf5A8ja53xCINqTdsH">
    <mxGraphModel dx="1502" dy="592" grid="0" gridSize="10" guides="0" tooltips="1" connect="0" arrows="1" fold="1" page="0" pageScale="1" pageWidth="850" pageHeight="1100" math="0" shadow="0">
      <root>
        <mxCell id="0" />
        <mxCell id="1" parent="0" />
        <mxCell id="Nr74gg0uKp1abMwciNmt-12" style="edgeStyle=orthogonalEdgeStyle;rounded=0;orthogonalLoop=1;jettySize=auto;html=1;entryX=0;entryY=0.25;entryDx=0;entryDy=0;exitX=1;exitY=0.5;exitDx=0;exitDy=0;" edge="1" parent="1" source="Nr74gg0uKp1abMwciNmt-1" target="Nr74gg0uKp1abMwciNmt-4">
          <mxGeometry relative="1" as="geometry" />
        </mxCell>
        <mxCell id="Nr74gg0uKp1abMwciNmt-116" style="edgeStyle=orthogonalEdgeStyle;rounded=0;orthogonalLoop=1;jettySize=auto;html=1;exitX=1;exitY=0.25;exitDx=0;exitDy=0;entryX=0;entryY=0.25;entryDx=0;entryDy=0;" edge="1" parent="1" source="Nr74gg0uKp1abMwciNmt-1" target="Nr74gg0uKp1abMwciNmt-11">
          <mxGeometry relative="1" as="geometry">
            <Array as="points">
              <mxPoint x="540" y="255" />
              <mxPoint x="540" y="295" />
            </Array>
          </mxGeometry>
        </mxCell>
        <mxCell id="Nr74gg0uKp1abMwciNmt-1" value="Masked Sequence" style="rounded=0;whiteSpace=wrap;html=1;" vertex="1" parent="1">
          <mxGeometry x="80" y="240" width="120" height="60" as="geometry" />
        </mxCell>
        <mxCell id="Nr74gg0uKp1abMwciNmt-7" style="edgeStyle=orthogonalEdgeStyle;rounded=0;orthogonalLoop=1;jettySize=auto;html=1;entryX=0;entryY=0.75;entryDx=0;entryDy=0;" edge="1" parent="1" source="Nr74gg0uKp1abMwciNmt-3" target="Nr74gg0uKp1abMwciNmt-4">
          <mxGeometry relative="1" as="geometry" />
        </mxCell>
        <mxCell id="Nr74gg0uKp1abMwciNmt-3" value="Real Expression" style="rounded=0;whiteSpace=wrap;html=1;" vertex="1" parent="1">
          <mxGeometry x="80" y="320" width="120" height="60" as="geometry" />
        </mxCell>
        <mxCell id="Nr74gg0uKp1abMwciNmt-24" style="edgeStyle=orthogonalEdgeStyle;rounded=0;orthogonalLoop=1;jettySize=auto;html=1;entryX=0;entryY=0.5;entryDx=0;entryDy=0;" edge="1" parent="1" source="Nr74gg0uKp1abMwciNmt-4" target="Nr74gg0uKp1abMwciNmt-6">
          <mxGeometry relative="1" as="geometry" />
        </mxCell>
        <mxCell id="Nr74gg0uKp1abMwciNmt-4" value="Generator" style="rounded=0;whiteSpace=wrap;html=1;fillColor=#dae8fc;strokeColor=#6c8ebf;" vertex="1" parent="1">
          <mxGeometry x="240" y="280" width="120" height="60" as="geometry" />
        </mxCell>
        <mxCell id="Nr74gg0uKp1abMwciNmt-114" style="edgeStyle=orthogonalEdgeStyle;rounded=0;orthogonalLoop=1;jettySize=auto;html=1;exitX=1;exitY=0.75;exitDx=0;exitDy=0;entryX=0;entryY=0.75;entryDx=0;entryDy=0;" edge="1" parent="1" source="Nr74gg0uKp1abMwciNmt-6" target="Nr74gg0uKp1abMwciNmt-11">
          <mxGeometry relative="1" as="geometry" />
        </mxCell>
        <mxCell id="Nr74gg0uKp1abMwciNmt-6" value="Fake Missing Sequence" style="rounded=0;whiteSpace=wrap;html=1;" vertex="1" parent="1">
          <mxGeometry x="400" y="280" width="120" height="60" as="geometry" />
        </mxCell>
        <mxCell id="Nr74gg0uKp1abMwciNmt-30" style="edgeStyle=orthogonalEdgeStyle;rounded=0;orthogonalLoop=1;jettySize=auto;html=1;entryX=0;entryY=0.25;entryDx=0;entryDy=0;" edge="1" parent="1" source="Nr74gg0uKp1abMwciNmt-10" target="Nr74gg0uKp1abMwciNmt-29">
          <mxGeometry relative="1" as="geometry" />
        </mxCell>
        <mxCell id="Nr74gg0uKp1abMwciNmt-10" value="Real Full&amp;nbsp;&lt;div&gt;Sequence&lt;/div&gt;" style="rounded=0;whiteSpace=wrap;html=1;" vertex="1" parent="1">
          <mxGeometry x="560" y="200" width="120" height="60" as="geometry" />
        </mxCell>
        <mxCell id="Nr74gg0uKp1abMwciNmt-31" style="edgeStyle=orthogonalEdgeStyle;rounded=0;orthogonalLoop=1;jettySize=auto;html=1;entryX=0;entryY=0.75;entryDx=0;entryDy=0;" edge="1" parent="1" source="Nr74gg0uKp1abMwciNmt-11" target="Nr74gg0uKp1abMwciNmt-29">
          <mxGeometry relative="1" as="geometry" />
        </mxCell>
        <mxCell id="Nr74gg0uKp1abMwciNmt-11" value="Fake Full&amp;nbsp;&lt;div&gt;Sequence&lt;/div&gt;" style="rounded=0;whiteSpace=wrap;html=1;" vertex="1" parent="1">
          <mxGeometry x="560" y="280" width="120" height="60" as="geometry" />
        </mxCell>
        <mxCell id="Nr74gg0uKp1abMwciNmt-35" style="edgeStyle=orthogonalEdgeStyle;rounded=0;orthogonalLoop=1;jettySize=auto;html=1;exitX=1;exitY=0.75;exitDx=0;exitDy=0;" edge="1" parent="1" source="Nr74gg0uKp1abMwciNmt-29" target="Nr74gg0uKp1abMwciNmt-34">
          <mxGeometry relative="1" as="geometry" />
        </mxCell>
        <mxCell id="Nr74gg0uKp1abMwciNmt-36" style="edgeStyle=orthogonalEdgeStyle;rounded=0;orthogonalLoop=1;jettySize=auto;html=1;exitX=1;exitY=0.25;exitDx=0;exitDy=0;entryX=0;entryY=0.5;entryDx=0;entryDy=0;" edge="1" parent="1" source="Nr74gg0uKp1abMwciNmt-29" target="Nr74gg0uKp1abMwciNmt-33">
          <mxGeometry relative="1" as="geometry" />
        </mxCell>
        <mxCell id="Nr74gg0uKp1abMwciNmt-29" value="Discriminator" style="rounded=0;whiteSpace=wrap;html=1;fillColor=#f8cecc;strokeColor=#b85450;" vertex="1" parent="1">
          <mxGeometry x="720" y="240" width="120" height="60" as="geometry" />
        </mxCell>
        <mxCell id="Nr74gg0uKp1abMwciNmt-39" style="edgeStyle=orthogonalEdgeStyle;rounded=0;orthogonalLoop=1;jettySize=auto;html=1;entryX=0.5;entryY=0;entryDx=0;entryDy=0;exitX=0.5;exitY=0;exitDx=0;exitDy=0;" edge="1" parent="1" source="Nr74gg0uKp1abMwciNmt-33" target="Nr74gg0uKp1abMwciNmt-29">
          <mxGeometry relative="1" as="geometry">
            <Array as="points">
              <mxPoint x="940" y="180" />
              <mxPoint x="780" y="180" />
            </Array>
          </mxGeometry>
        </mxCell>
        <mxCell id="Nr74gg0uKp1abMwciNmt-33" value="Discriminator&lt;div&gt;Loss&lt;/div&gt;" style="rounded=0;whiteSpace=wrap;html=1;" vertex="1" parent="1">
          <mxGeometry x="880" y="200" width="120" height="60" as="geometry" />
        </mxCell>
        <mxCell id="Nr74gg0uKp1abMwciNmt-34" value="Generator&lt;div&gt;Adversarial Loss&lt;/div&gt;" style="rounded=0;whiteSpace=wrap;html=1;" vertex="1" parent="1">
          <mxGeometry x="880" y="280" width="120" height="60" as="geometry" />
        </mxCell>
      </root>
    </mxGraphModel>
  </diagram>
</mxfile>
